PathFileType	4	(X/Y/Z)	 0.16m3min.trc
DataRate	CameraRate	NumFrames	NumMarkers	Units	OrigDataRate	OrigDataStartFrame	OrigNumFrames
200	200	9	43	m	200	251	1000
Frame#	Time	C7			LSH			RSH			MAN			RASI			LASI			HIPR			HIPL			RPSI			LPSI			COX			RTHI1			RTHI2			RTHI3			RTHI4			RLKN			RMKN			RSHA1			RSHA2			RSHA3			RSHA4			RLMAL			RMMAL			RHEEL			RMET5			RMET1			RTOE			LTHI1			LTHI2			LTHI3			LTHI4			LLKN			LMKN			LSHA1			LSHA2			LSHA3			LSHA4			LLMAL			LMMAL			LHEEL			LMET5			LMET1			LTOE			
		X1	Y1	Z1	X2	Y2	Z2	X3	Y3	Z3	X4	Y4	Z4	X5	Y5	Z5	X6	Y6	Z6	X7	Y7	Z7	X8	Y8	Z8	X9	Y9	Z9	X10	Y10	Z10	X11	Y11	Z11	X12	Y12	Z12	X13	Y13	Z13	X14	Y14	Z14	X15	Y15	Z15	X16	Y16	Z16	X17	Y17	Z17	X18	Y18	Z18	X19	Y19	Z19	X20	Y20	Z20	X21	Y21	Z21	X22	Y22	Z22	X23	Y23	Z23	X24	Y24	Z24	X25	Y25	Z25	X26	Y26	Z26	X27	Y27	Z27	X28	Y28	Z28	X29	Y29	Z29	X30	Y30	Z30	X31	Y31	Z31	X32	Y32	Z32	X33	Y33	Z33	X34	Y34	Z34	X35	Y35	Z35	X36	Y36	Z36	X37	Y37	Z37	X38	Y38	Z38	X39	Y39	Z39	X40	Y40	Z40	X41	Y41	Z41	X42	Y42	Z42	X43	Y43	Z43	
251	1.2550	-0.328406	1.696783	-0.552042	-0.289454	1.677882	-0.758959	-0.260270	1.673956	-0.357254	-0.195332	1.632566	-0.558739	-0.240755	1.169611	-0.441859	-0.252602	1.170548	-0.680152	-0.313547	1.246868	-0.392796	-0.329515	1.260857	-0.715008	-0.415849	1.223379	-0.504097	-0.416749	1.227150	-0.597163	-0.418309	1.225626	-0.549739	-0.322769	0.958004	-0.348985	-0.310102	0.900045	-0.340174	-0.246219	0.909495	-0.343910	-0.250809	0.970257	-0.354214	-0.269810	0.644669	-0.347434	-0.272746	0.622571	-0.463206	-0.328623	0.474389	-0.303028	-0.341127	0.433956	-0.310421	-0.284789	0.425187	-0.331822	-0.278334	0.464292	-0.326855	-0.355990	0.247862	-0.314475	-0.329053	0.240385	-0.402950	-0.408177	0.232086	-0.356994	-0.260569	0.129886	-0.305392	-0.223574	0.141807	-0.377515	-0.197771	0.122080	-0.377504	-0.347580	0.909570	-0.756386	-0.333618	0.849706	-0.760146	-0.269664	0.859008	-0.768205	-0.276289	0.918553	-0.766421	-0.311630	0.642507	-0.743834	-0.274275	0.632377	-0.636987	-0.396347	0.463557	-0.750304	-0.406880	0.424681	-0.742072	-0.346909	0.412980	-0.746168	-0.342982	0.456646	-0.754606	-0.414190	0.241494	-0.741861	-0.379156	0.244675	-0.655563	-0.467359	0.232907	-0.687681	-0.325902	0.137396	-0.758977	-0.278853	0.145430	-0.693527	-0.254767	0.126375	-0.695009	
252	1.2600	-0.328456	1.693488	-0.551666	-0.289605	1.674527	-0.758581	-0.260415	1.670510	-0.356892	-0.195442	1.629178	-0.558384	-0.240896	1.166104	-0.441942	-0.252951	1.167145	-0.680105	-0.313372	1.243248	-0.392571	-0.329700	1.257443	-0.714860	-0.415972	1.220301	-0.503968	-0.416906	1.224308	-0.597285	-0.418436	1.222541	-0.549604	-0.322330	0.954666	-0.348837	-0.309602	0.896710	-0.340037	-0.245742	0.906213	-0.343953	-0.250392	0.966955	-0.354261	-0.269066	0.641329	-0.347385	-0.272894	0.619176	-0.463236	-0.328251	0.471333	-0.302466	-0.341047	0.430941	-0.309811	-0.284912	0.421893	-0.331613	-0.278187	0.460978	-0.326701	-0.357064	0.245017	-0.313771	-0.330653	0.237295	-0.402312	-0.409601	0.229000	-0.355811	-0.261289	0.127618	-0.304749	-0.224665	0.139324	-0.377081	-0.198781	0.119742	-0.377104	-0.347508	0.906207	-0.756543	-0.333469	0.846368	-0.760292	-0.269491	0.855729	-0.768094	-0.276183	0.915271	-0.766313	-0.311279	0.639151	-0.743842	-0.274370	0.629083	-0.636741	-0.396279	0.460439	-0.750535	-0.406965	0.421615	-0.742323	-0.347025	0.409721	-0.745989	-0.342910	0.453364	-0.754495	-0.414820	0.238396	-0.741832	-0.380319	0.241663	-0.655321	-0.468417	0.230077	-0.688019	-0.326696	0.133962	-0.757997	-0.280053	0.142240	-0.692369	-0.256015	0.123146	-0.693641	
253	1.2650	-0.328510	1.689963	-0.551289	-0.289778	1.670909	-0.758210	-0.260566	1.666835	-0.356526	-0.195553	1.625539	-0.558028	-0.241038	1.162358	-0.442034	-0.253296	1.163502	-0.680054	-0.313145	1.239381	-0.392335	-0.329850	1.253792	-0.714754	-0.416103	1.217010	-0.503825	-0.417176	1.220986	-0.596910	-0.418575	1.219244	-0.549460	-0.321845	0.951112	-0.348712	-0.309062	0.893155	-0.339920	-0.245221	0.902701	-0.344034	-0.249926	0.963425	-0.354350	-0.268322	0.637755	-0.347342	-0.273045	0.615557	-0.463297	-0.327922	0.468054	-0.301938	-0.341032	0.427719	-0.309239	-0.285099	0.418377	-0.331431	-0.278108	0.457427	-0.326583	-0.358234	0.241966	-0.313131	-0.332334	0.233999	-0.401727	-0.411107	0.225613	-0.354685	-0.261905	0.125298	-0.304103	-0.225639	0.136835	-0.376604	-0.199639	0.117415	-0.376671	-0.347401	0.902608	-0.756706	-0.333291	0.842793	-0.760433	-0.269293	0.852205	-0.767979	-0.276040	0.911750	-0.766199	-0.310881	0.635534	-0.743835	-0.274461	0.625521	-0.636459	-0.396236	0.457094	-0.750757	-0.407097	0.418325	-0.742548	-0.347190	0.406204	-0.745760	-0.342862	0.449820	-0.754351	-0.415567	0.235072	-0.741729	-0.381620	0.238454	-0.655005	-0.469603	0.226936	-0.688309	-0.327481	0.130464	-0.756953	-0.281236	0.139021	-0.691135	-0.257212	0.119945	-0.692212	
254	1.2700	-0.328561	1.686196	-0.550912	-0.289976	1.667025	-0.757854	-0.260734	1.662916	-0.356141	-0.195665	1.621644	-0.557673	-0.241193	1.158369	-0.442129	-0.253640	1.159619	-0.679995	-0.312876	1.235279	-0.392097	-0.329979	1.249910	-0.714697	-0.416251	1.213503	-0.503668	-0.417351	1.217270	-0.596848	-0.418732	1.215729	-0.549313	-0.321322	0.947339	-0.348604	-0.308482	0.889380	-0.339820	-0.244659	0.898960	-0.344160	-0.249423	0.959672	-0.354486	-0.267563	0.633963	-0.347302	-0.273157	0.611712	-0.463378	-0.327653	0.464556	-0.301451	-0.341098	0.424276	-0.308720	-0.285359	0.414643	-0.331271	-0.278099	0.453643	-0.326486	-0.359509	0.238721	-0.312562	-0.334099	0.230504	-0.401190	-0.412685	0.221942	-0.353632	-0.262464	0.122888	-0.303488	-0.226534	0.134299	-0.376097	-0.200389	0.115051	-0.376216	-0.347257	0.898774	-0.756874	-0.333079	0.838980	-0.760569	-0.269063	0.848439	-0.767858	-0.275859	0.907985	-0.766084	-0.310429	0.631661	-0.743817	-0.274529	0.621683	-0.636147	-0.396225	0.453529	-0.750974	-0.407287	0.414815	-0.742741	-0.347417	0.402439	-0.745484	-0.342849	0.446022	-0.754176	-0.416458	0.231534	-0.741539	-0.383082	0.235056	-0.654602	-0.470931	0.223485	-0.688531	-0.328270	0.126900	-0.755845	-0.282417	0.135808	-0.689860	-0.258366	0.116797	-0.690752	
255	1.2750	-0.328612	1.682183	-0.550537	-0.290217	1.662866	-0.757524	-0.260919	1.658738	-0.355744	-0.195787	1.617491	-0.557324	-0.241372	1.154151	-0.442222	-0.253988	1.155499	-0.679921	-0.312589	1.230958	-0.391859	-0.330083	1.245809	-0.714683	-0.416408	1.209764	-0.503512	-0.417631	1.213574	-0.596530	-0.418891	1.211967	-0.549185	-0.320765	0.943349	-0.348511	-0.307857	0.885387	-0.339734	-0.244058	0.894997	-0.344338	-0.248891	0.955697	-0.354675	-0.266785	0.629942	-0.347263	-0.273194	0.607646	-0.463473	-0.327471	0.460859	-0.301023	-0.341246	0.420615	-0.308265	-0.285675	0.410703	-0.331127	-0.278156	0.449634	-0.326402	-0.360899	0.235251	-0.312043	-0.335919	0.226805	-0.400706	-0.414316	0.218027	-0.352703	-0.263041	0.120324	-0.302894	-0.227397	0.131639	-0.375551	-0.201094	0.112573	-0.375730	-0.347070	0.894712	-0.757047	-0.332831	0.834933	-0.760703	-0.268798	0.844435	-0.767737	-0.275638	0.903980	-0.765968	-0.309918	0.627543	-0.743796	-0.274557	0.617583	-0.635816	-0.396252	0.449740	-0.751191	-0.407540	0.411104	-0.742905	-0.347704	0.398441	-0.745162	-0.342883	0.441981	-0.753969	-0.417513	0.227800	-0.741253	-0.384716	0.231488	-0.654113	-0.472408	0.219744	-0.688667	-0.329098	0.123297	-0.754707	-0.283610	0.132594	-0.688556	-0.259498	0.113690	-0.689286	
256	1.2800	-0.328666	1.677927	-0.550166	-0.290473	1.658433	-0.757211	-0.261129	1.654323	-0.355320	-0.195924	1.613083	-0.556986	-0.241583	1.149706	-0.442302	-0.254342	1.151145	-0.679830	-0.312302	1.226437	-0.391614	-0.330169	1.241501	-0.714710	-0.416596	1.205809	-0.503349	-0.417871	1.209630	-0.596495	-0.419084	1.207987	-0.549051	-0.320175	0.939129	-0.348425	-0.307187	0.881172	-0.339660	-0.243418	0.890813	-0.344568	-0.248341	0.951512	-0.354914	-0.265978	0.625692	-0.347221	-0.273130	0.603365	-0.463574	-0.327370	0.456971	-0.300665	-0.341459	0.416769	-0.307875	-0.286039	0.406560	-0.330994	-0.278268	0.445416	-0.326324	-0.362389	0.231580	-0.311582	-0.337767	0.222902	-0.400280	-0.415987	0.213924	-0.351923	-0.263735	0.117522	-0.302327	-0.228292	0.128765	-0.374946	-0.201837	0.109881	-0.375188	-0.346838	0.890423	-0.757220	-0.332541	0.830651	-0.760838	-0.268493	0.840198	-0.767618	-0.275375	0.899743	-0.765850	-0.309337	0.623184	-0.743778	-0.274532	0.613222	-0.635479	-0.396329	0.445752	-0.751410	-0.407862	0.407186	-0.743039	-0.348077	0.394216	-0.744792	-0.342972	0.437700	-0.753725	-0.418745	0.223878	-0.740863	-0.386511	0.227760	-0.653535	-0.474036	0.215750	-0.688693	-0.330005	0.119625	-0.753543	-0.284848	0.129338	-0.687244	-0.260639	0.110593	-0.687828	
257	1.2850	-0.328725	1.673426	-0.549796	-0.290742	1.653727	-0.756919	-0.261352	1.649662	-0.354903	-0.196072	1.608420	-0.556662	-0.241835	1.145039	-0.442361	-0.254706	1.146560	-0.679718	-0.312051	1.221723	-0.391358	-0.330246	1.236982	-0.714762	-0.416822	1.201616	-0.503190	-0.418121	1.205402	-0.596448	-0.419311	1.203768	-0.548925	-0.319567	0.934684	-0.348336	-0.306476	0.876737	-0.339595	-0.242742	0.886421	-0.344846	-0.247777	0.947121	-0.355199	-0.265133	0.621222	-0.347171	-0.272939	0.598868	-0.463674	-0.327338	0.452895	-0.300386	-0.341720	0.412756	-0.307553	-0.286438	0.402223	-0.330870	-0.278420	0.440994	-0.326247	-0.363961	0.227725	-0.311200	-0.339585	0.218820	-0.399910	-0.417679	0.209699	-0.351325	-0.264650	0.114414	-0.301793	-0.229290	0.125575	-0.374277	-0.202711	0.106856	-0.374564	-0.346557	0.885906	-0.757392	-0.332204	0.826145	-0.760974	-0.268143	0.835735	-0.767501	-0.275070	0.895278	-0.765733	-0.308686	0.618582	-0.743768	-0.274435	0.608620	-0.635148	-0.396460	0.441554	-0.751623	-0.408256	0.403068	-0.743137	-0.348530	0.389767	-0.744367	-0.343125	0.433192	-0.753446	-0.420151	0.219786	-0.740369	-0.388439	0.223872	-0.652873	-0.475811	0.211538	-0.688582	-0.331048	0.115855	-0.752372	-0.286165	0.125974	-0.685948	-0.261843	0.107432	-0.686414	
258	1.2900	-0.328787	1.668675	-0.549429	-0.291033	1.648737	-0.756651	-0.261581	1.644714	-0.354502	-0.196221	1.603497	-0.556348	-0.242133	1.140149	-0.442396	-0.255086	1.141743	-0.679581	-0.311855	1.216813	-0.391101	-0.330306	1.232229	-0.714834	-0.417092	1.197184	-0.503036	-0.418407	1.200959	-0.596406	-0.419576	1.199305	-0.548801	-0.318938	0.930006	-0.348241	-0.305721	0.872078	-0.339536	-0.242030	0.881828	-0.345165	-0.247209	0.942522	-0.355520	-0.264242	0.616547	-0.347106	-0.272600	0.594171	-0.463771	-0.327372	0.448635	-0.300199	-0.342034	0.408554	-0.307335	-0.286846	0.397693	-0.330747	-0.278589	0.436386	-0.326170	-0.365620	0.223670	-0.310914	-0.341332	0.214576	-0.399618	-0.419388	0.205409	-0.350933	-0.265894	0.110930	-0.301275	-0.230475	0.121981	-0.373560	-0.203807	0.103411	-0.373833	-0.346225	0.881162	-0.757559	-0.331811	0.821409	-0.761111	-0.267739	0.831055	-0.767389	-0.274722	0.890590	-0.765619	-0.307966	0.613745	-0.743772	-0.274255	0.603783	-0.634831	-0.396642	0.437150	-0.751817	-0.408720	0.398746	-0.743195	-0.349065	0.385109	-0.743891	-0.343343	0.428463	-0.753129	-0.421726	0.215534	-0.739782	-0.390473	0.219833	-0.652130	-0.477720	0.207176	-0.688330	-0.332294	0.111938	-0.751212	-0.287629	0.122447	-0.684709	-0.263190	0.104114	-0.685074	
259	1.2950	-0.328855	1.663668	-0.549071	-0.291338	1.643467	-0.756404	-0.261802	1.639480	-0.354145	-0.196367	1.598324	-0.556044	-0.242482	1.135038	-0.442399	-0.255492	1.136702	-0.679417	-0.311741	1.211721	-0.390838	-0.330357	1.227240	-0.714904	-0.417416	1.192505	-0.502892	-0.418718	1.196155	-0.596367	-0.419881	1.194600	-0.548677	-0.318292	0.925093	-0.348136	-0.304924	0.867189	-0.339472	-0.241291	0.877044	-0.345510	-0.246644	0.937721	-0.355861	-0.263312	0.611663	-0.347013	-0.272108	0.589277	-0.463863	-0.327459	0.444191	-0.300106	-0.342375	0.404178	-0.307208	-0.287249	0.392970	-0.330636	-0.278764	0.431589	-0.326091	-0.367358	0.219440	-0.310725	-0.342997	0.210167	-0.399418	-0.421127	0.201100	-0.350764	-0.267527	0.107039	-0.300769	-0.231911	0.117905	-0.372787	-0.205205	0.099481	-0.372994	-0.345843	0.876184	-0.757716	-0.331361	0.816446	-0.761249	-0.267283	0.826155	-0.767291	-0.274330	0.885685	-0.765511	-0.307180	0.608678	-0.743788	-0.273979	0.598725	-0.634548	-0.396876	0.432542	-0.751974	-0.409245	0.394236	-0.743200	-0.349677	0.380245	-0.743367	-0.343621	0.423518	-0.752774	-0.423455	0.211145	-0.739109	-0.392568	0.215640	-0.651320	-0.479758	0.202708	-0.687923	-0.333807	0.107849	-0.750089	-0.289290	0.118651	-0.683529	-0.264756	0.100513	-0.683829	
